<svg width="23" height="17" viewBox="0 0 23 17" fill="none" xmlns="http://www.w3.org/2000/svg">
<path d="M20.123 16.654H2.082C1.80859 16.654 1.53785 16.6001 1.28525 16.4955C1.03265 16.3909 0.803135 16.2375 0.609804 16.0442C0.416472 15.8509 0.263113 15.6213 0.158483 15.3687C0.0538525 15.1161 0 14.8454 0 14.572L0 2.082C0 1.52982 0.219353 1.00025 0.609804 0.609804C1.00025 0.219353 1.52982 0 2.082 0H20.123C20.6743 0.001324 21.2026 0.221261 21.592 0.611568C21.9813 1.00188 22.2 1.53068 22.2 2.082V14.572C22.2 15.1233 21.9813 15.6521 21.592 16.0424C21.2026 16.4327 20.6743 16.6527 20.123 16.654ZM4.857 2.429C4.37655 2.429 3.90688 2.57148 3.50742 2.83843C3.10795 3.10538 2.79662 3.48479 2.6128 3.92869C2.42899 4.37259 2.38094 4.86103 2.47475 5.33224C2.56855 5.80345 2.79999 6.23625 3.13979 6.57592C3.47959 6.91558 3.91249 7.14684 4.38374 7.24045C4.85498 7.33406 5.34341 7.28581 5.78723 7.10182C6.23106 6.91782 6.61034 6.60633 6.87713 6.20675C7.14391 5.80717 7.2862 5.33745 7.286 4.857C7.28573 4.21296 7.02971 3.59539 6.57421 3.14008C6.11871 2.68477 5.50104 2.429 4.857 2.429ZM2.776 13.878H19.429V9.021L15.629 5.221C15.5807 5.17262 15.5233 5.13424 15.4602 5.10806C15.397 5.08187 15.3294 5.06839 15.261 5.06839C15.1926 5.06839 15.125 5.08187 15.0618 5.10806C14.9987 5.13424 14.9413 5.17262 14.893 5.221L9.021 11.1L6.613 8.695C6.5647 8.64662 6.50734 8.60824 6.44419 8.58206C6.38105 8.55587 6.31336 8.54239 6.245 8.54239C6.17664 8.54239 6.10895 8.55587 6.04581 8.58206C5.98266 8.60824 5.9253 8.64662 5.877 8.695L2.777 11.795L2.776 13.878Z" fill="#CB0C9F"/>
</svg>
