<svg width="17" height="23" viewBox="0 0 17 23" fill="none" xmlns="http://www.w3.org/2000/svg">
<path d="M7.824 11.016C7.62991 10.3613 7.60037 9.66884 7.738 9C8.1 9 8.065 10.586 7.824 11.016ZM7.751 13.046C7.41152 13.9752 7.00305 14.8777 6.529 15.746C7.40055 15.3495 8.30626 15.0329 9.235 14.8C8.62386 14.3248 8.11845 13.7274 7.751 13.046ZM3.7 18.414C3.7 18.448 4.268 18.182 5.2 16.685C4.59272 17.1587 4.08328 17.7459 3.7 18.414ZM10.668 6.882H16.518V20.991C16.5183 21.1266 16.4918 21.2609 16.44 21.3862C16.3882 21.5116 16.3122 21.6254 16.2163 21.7213C16.1204 21.8172 16.0066 21.8932 15.8812 21.945C15.7559 21.9968 15.6216 22.0233 15.486 22.023H1.032C0.896404 22.0233 0.762088 21.9968 0.636761 21.945C0.511434 21.8932 0.397563 21.8172 0.30168 21.7213C0.205797 21.6254 0.129791 21.5116 0.0780215 21.3862C0.026252 21.2609 -0.000261608 21.1266 1.9457e-06 20.991V1.032C-0.000261608 0.896405 0.026252 0.762089 0.0780215 0.636762C0.129791 0.511435 0.205797 0.397564 0.30168 0.301681C0.397563 0.205799 0.511434 0.129792 0.636761 0.0780227C0.762088 0.0262531 0.896404 -0.000260435 1.032 3.1192e-06H9.632V5.85C9.6328 6.12416 9.74233 6.38679 9.93656 6.58027C10.1308 6.77375 10.3938 6.88227 10.668 6.882ZM10.324 14.272C9.45857 13.7407 8.80812 12.9214 8.487 11.958C8.78317 11.0706 8.87412 10.1276 8.753 9.2C8.72323 8.96669 8.61791 8.74954 8.45311 8.58172C8.28832 8.4139 8.07312 8.30464 7.84039 8.27064C7.60766 8.23663 7.37019 8.27974 7.16427 8.39339C6.95835 8.50703 6.79529 8.68497 6.7 8.9C6.55377 10.016 6.67301 11.1508 7.048 12.212C6.52566 13.4712 5.93991 14.7031 5.293 15.903C5.293 15.903 5.293 15.903 5.284 15.903C4.118 16.503 2.118 17.817 2.94 18.828C3.17939 19.0879 3.51196 19.2425 3.865 19.258C4.635 19.258 5.401 18.484 6.493 16.6C7.60073 16.1851 8.73703 15.8509 9.893 15.6C10.7367 16.0813 11.6773 16.3679 12.646 16.439C12.8646 16.4446 13.0801 16.3857 13.2655 16.2696C13.4508 16.1535 13.5979 15.9854 13.6882 15.7862C13.7786 15.587 13.8083 15.3656 13.7735 15.1497C13.7388 14.9337 13.6412 14.7328 13.493 14.572C12.893 13.987 11.157 14.155 10.327 14.262L10.324 14.272ZM16.217 4.516L12 0.300003C11.806 0.107231 11.5435 -0.000668774 11.27 3.1192e-06H11.012V5.506H16.518V5.243C16.5174 4.97057 16.4088 4.70948 16.216 4.517L16.217 4.516ZM13.029 15.5C13.205 15.384 12.921 14.988 11.188 15.113C12.784 15.791 13.029 15.5 13.029 15.5Z" fill="#CB0C9F"/>
</svg>
